<mxfile host="app.diagrams.net" modified="2023-10-28T17:07:14.391Z" agent="Mozilla/5.0 (Windows NT 10.0; Win64; x64) AppleWebKit/537.36 (KHTML, like Gecko) Chrome/118.0.0.0 Safari/537.36 Edg/118.0.2088.69" etag="5lVhAegZLV_OaypKYw6A" version="22.0.8" type="device">
  <diagram name="Page-1" id="M6KIkLclqjexAwIGLMvY">
    <mxGraphModel dx="1912" dy="592" grid="1" gridSize="10" guides="1" tooltips="1" connect="1" arrows="1" fold="1" page="1" pageScale="1" pageWidth="850" pageHeight="1100" math="0" shadow="0">
      <root>
        <mxCell id="0" />
        <mxCell id="1" parent="0" />
        <mxCell id="7ltzNfub9ivYZsT_dz1I-2" value="Создать или выбрать лэйаут" style="ellipse;whiteSpace=wrap;html=1;" vertex="1" parent="1">
          <mxGeometry x="100" y="90" width="120" height="80" as="geometry" />
        </mxCell>
        <mxCell id="7ltzNfub9ivYZsT_dz1I-3" value="Заполнить лэйаут объектами и стенами" style="ellipse;whiteSpace=wrap;html=1;" vertex="1" parent="1">
          <mxGeometry x="280" y="180" width="120" height="80" as="geometry" />
        </mxCell>
        <mxCell id="7ltzNfub9ivYZsT_dz1I-4" value="Сохранить лэйаут" style="ellipse;whiteSpace=wrap;html=1;" vertex="1" parent="1">
          <mxGeometry x="210" y="290" width="120" height="80" as="geometry" />
        </mxCell>
        <mxCell id="7ltzNfub9ivYZsT_dz1I-5" value="Оформить заказ" style="ellipse;whiteSpace=wrap;html=1;" vertex="1" parent="1">
          <mxGeometry x="10" y="290" width="120" height="80" as="geometry" />
        </mxCell>
        <mxCell id="7ltzNfub9ivYZsT_dz1I-6" value="Обновить базу данных" style="ellipse;whiteSpace=wrap;html=1;" vertex="1" parent="1">
          <mxGeometry x="-50" y="180" width="120" height="80" as="geometry" />
        </mxCell>
        <mxCell id="7ltzNfub9ivYZsT_dz1I-7" value="" style="endArrow=none;html=1;rounded=0;entryX=0.973;entryY=0.683;entryDx=0;entryDy=0;entryPerimeter=0;exitX=0.084;exitY=0.195;exitDx=0;exitDy=0;exitPerimeter=0;" edge="1" parent="1" source="7ltzNfub9ivYZsT_dz1I-3" target="7ltzNfub9ivYZsT_dz1I-2">
          <mxGeometry width="50" height="50" relative="1" as="geometry">
            <mxPoint x="80" y="280" as="sourcePoint" />
            <mxPoint x="130" y="230" as="targetPoint" />
          </mxGeometry>
        </mxCell>
        <mxCell id="7ltzNfub9ivYZsT_dz1I-8" value="" style="endArrow=none;html=1;rounded=0;entryX=0;entryY=1;entryDx=0;entryDy=0;exitX=0.5;exitY=0;exitDx=0;exitDy=0;" edge="1" parent="1" source="7ltzNfub9ivYZsT_dz1I-4" target="7ltzNfub9ivYZsT_dz1I-3">
          <mxGeometry width="50" height="50" relative="1" as="geometry">
            <mxPoint x="290" y="206" as="sourcePoint" />
            <mxPoint x="227" y="155" as="targetPoint" />
          </mxGeometry>
        </mxCell>
        <mxCell id="7ltzNfub9ivYZsT_dz1I-9" value="" style="endArrow=none;html=1;rounded=0;entryX=1;entryY=0.5;entryDx=0;entryDy=0;exitX=0;exitY=0.5;exitDx=0;exitDy=0;" edge="1" parent="1" source="7ltzNfub9ivYZsT_dz1I-4" target="7ltzNfub9ivYZsT_dz1I-5">
          <mxGeometry width="50" height="50" relative="1" as="geometry">
            <mxPoint x="280" y="300" as="sourcePoint" />
            <mxPoint x="298" y="258" as="targetPoint" />
          </mxGeometry>
        </mxCell>
        <mxCell id="7ltzNfub9ivYZsT_dz1I-10" value="" style="endArrow=none;html=1;rounded=0;entryX=0.5;entryY=1;entryDx=0;entryDy=0;exitX=0;exitY=0;exitDx=0;exitDy=0;" edge="1" parent="1" source="7ltzNfub9ivYZsT_dz1I-5" target="7ltzNfub9ivYZsT_dz1I-6">
          <mxGeometry width="50" height="50" relative="1" as="geometry">
            <mxPoint x="220" y="340" as="sourcePoint" />
            <mxPoint x="140" y="340" as="targetPoint" />
          </mxGeometry>
        </mxCell>
        <mxCell id="7ltzNfub9ivYZsT_dz1I-11" value="" style="endArrow=none;html=1;rounded=0;entryX=0;entryY=0.5;entryDx=0;entryDy=0;exitX=0.5;exitY=0;exitDx=0;exitDy=0;" edge="1" parent="1" source="7ltzNfub9ivYZsT_dz1I-6" target="7ltzNfub9ivYZsT_dz1I-2">
          <mxGeometry width="50" height="50" relative="1" as="geometry">
            <mxPoint x="38" y="312" as="sourcePoint" />
            <mxPoint x="-10" y="260" as="targetPoint" />
          </mxGeometry>
        </mxCell>
      </root>
    </mxGraphModel>
  </diagram>
</mxfile>
